<svg xmlns="http://www.w3.org/2000/svg" viewBox="0 0 320 72" fill="none">
  <defs>
    <filter id="glow-lg">
      <feGaussianBlur in="SourceGraphic" stdDeviation="1.5" result="blur"/>
      <feMerge><feMergeNode in="blur"/><feMergeNode in="SourceGraphic"/></feMerge>
    </filter>
  </defs>

  <!-- ═══ ICON MARK (scaled to 64x64, offset 4,4) ═══ -->
  <g transform="translate(4,4) scale(0.533)" filter="url(#glow-lg)">
    <!-- Left spine outer -->
    <line x1="16" y1="16" x2="16" y2="94" stroke="#00C8FF" stroke-width="3.8"/>
    <line x1="23" y1="23" x2="23" y2="88" stroke="#00C8FF" stroke-width="2.2"/>
    <!-- Top horizontal -->
    <line x1="16" y1="16" x2="72" y2="16" stroke="#00C8FF" stroke-width="3.8"/>
    <line x1="23" y1="23" x2="66" y2="23" stroke="#00C8FF" stroke-width="2.2"/>
    <!-- R Arch -->
    <polyline points="72,16 84,28 84,50 72,62" stroke="#00C8FF" stroke-width="3.8" stroke-linejoin="miter" fill="none"/>
    <polyline points="66,23 76,33 76,46 66,56" stroke="#00C8FF" stroke-width="2.2" stroke-linejoin="miter" fill="none"/>
    <!-- Middle crossbar -->
    <line x1="23" y1="56" x2="72" y2="56" stroke="#00C8FF" stroke-width="3.8"/>
    <line x1="23" y1="62" x2="66" y2="62" stroke="#00C8FF" stroke-width="2.2"/>
    <!-- Left leg -->
    <line x1="16" y1="94" x2="36" y2="94" stroke="#00C8FF" stroke-width="3.8"/>
    <line x1="23" y1="88" x2="38" y2="88" stroke="#00C8FF" stroke-width="2.2"/>
    <!-- Diagonal leg -->
    <line x1="50" y1="62" x2="78" y2="94" stroke="#00C8FF" stroke-width="3.8"/>
    <line x1="44" y1="62" x2="70" y2="94" stroke="#00C8FF" stroke-width="2.2"/>
    <line x1="66" y1="94" x2="78" y2="94" stroke="#00C8FF" stroke-width="3.8"/>
    <!-- Knot X -->
    <line x1="32" y1="38" x2="55" y2="62" stroke="#00C8FF" stroke-width="2.8"/>
    <line x1="55" y1="38" x2="32" y2="62" stroke="#00C8FF" stroke-width="2.8"/>
    <rect x="38" y="46" width="10" height="8" fill="#000000"/>
    <line x1="32" y1="38" x2="46" y2="52" stroke="#00C8FF" stroke-width="2.8"/>
    <line x1="41" y1="51" x2="32" y2="62" stroke="#00C8FF" stroke-width="2.8"/>
    <!-- Arrow -->
    <line x1="72" y1="16" x2="104" y2="16" stroke="#00C8FF" stroke-width="3.8"/>
    <line x1="104" y1="16" x2="104" y2="48" stroke="#00C8FF" stroke-width="3.8"/>
    <line x1="84" y1="23" x2="98" y2="23" stroke="#00C8FF" stroke-width="2.2"/>
    <line x1="98" y1="23" x2="98" y2="42" stroke="#00C8FF" stroke-width="2.2"/>
    <line x1="84" y1="28" x2="102" y2="46" stroke="#00C8FF" stroke-width="2.8"/>
    <polygon points="104,16 92,16 104,28" fill="#00C8FF"/>
  </g>

  <!-- ═══ SEPARATOR LINE ═══ -->
  <line x1="80" y1="14" x2="80" y2="58" stroke="rgba(0,200,255,0.35)" stroke-width="1"/>

  <!-- ═══ WORDMARK ═══ -->
  <text x="96" y="38"
        font-family="'Space Grotesk', sans-serif"
        font-size="26"
        font-weight="700"
        letter-spacing="4"
        fill="#FFFFFF">RAXISLAB</text>

  <!-- ═══ TAGLINE ═══ -->
  <text x="97" y="54"
        font-family="'Space Grotesk', sans-serif"
        font-size="8.5"
        font-weight="400"
        letter-spacing="3.5"
        fill="#00C8FF">PRECISION . INNOVATION . SCALABILITY</text>
</svg>
